# xmcd CD database file
#
# Track frame offsets:
#	150
#	11470
#	39810
#	63037
#	81177
#	119615
#	141615
#	159767
#	174557
#	187152
#	196837
#
# Disc length: 2783 seconds
#
# Revision: 2
# Processed by: cddbd v1.5.2PL0 Copyright (c) Steve Scherf et al.
# Submitted via: CDex 1.70beta2
#
DISCID=8b0add0b
DTITLE=Willie Nelson - Whiskey River
DYEAR=1994
DGENRE=Country
TTITLE0=Whiskey River
TTITLE1=Night Life
TTITLE2=Across The Borderline
TTITLE3=Heartland
TTITLE4=Don't Give Up
TTITLE5=The Most Original Sin
TTITLE6=Still Is Still Movin` To Me
TTITLE7=Midnight Rodeo
TTITLE8=Blue Eyes Crying In The Rain
TTITLE9=On The Road Again
TTITLE10=Whiskey River 
EXTD=YEAR: 1994
EXTT0=
EXTT1=
EXTT2=
EXTT3=
EXTT4=
EXTT5=
EXTT6=
EXTT7=
EXTT8=
EXTT9=
EXTT10=
PLAYORDER=
